<svg width="47" height="58" viewBox="0 0 47 58" fill="none" xmlns="http://www.w3.org/2000/svg">
<path d="M31.8657 9.17125C32.9526 7.91855 33.7813 6.46349 34.3043 4.88962C34.8272 3.31575 35.0342 1.65407 34.9132 0C31.5764 0.26935 28.4789 1.83872 26.2882 4.37C25.2391 5.58318 24.4441 6.99453 23.9502 8.52048C23.4564 10.0464 23.2738 11.656 23.4132 13.2538C25.0408 13.2673 26.6498 12.9061 28.1155 12.1982C29.5812 11.4903 30.8644 10.4546 31.8657 9.17125ZM39.1107 30.5613C39.1299 28.3582 39.7102 26.1965 40.7968 24.28C41.8833 22.3634 43.4402 20.7554 45.3207 19.6075C44.1339 17.8976 42.5651 16.4876 40.7386 15.4896C38.9121 14.4915 36.8782 13.9327 34.7982 13.8575C30.3132 13.3975 26.1732 16.4737 23.7869 16.4737C21.4007 16.4737 18.0369 13.915 14.2994 13.9725C11.856 14.053 9.47523 14.7654 7.3892 16.0402C5.30318 17.315 3.58316 19.1086 2.39692 21.2463C-2.66308 30.0438 1.10317 43.125 6.16317 50.2262C8.46317 53.705 11.3382 57.6437 15.1332 57.5C18.9282 57.3563 20.1644 55.1425 24.5632 55.1425C28.9619 55.1425 30.3132 57.5 34.0507 57.4137C37.7882 57.3275 40.4332 53.8488 42.8482 50.37C44.5589 47.8444 45.8953 45.0846 46.8157 42.1763C44.5372 41.2045 42.5932 39.5867 41.2239 37.5225C39.8546 35.4583 39.1199 33.0383 39.1107 30.5613Z" fill="black"/>
</svg>
