<svg width="54" height="61" viewBox="0 0 54 61" fill="#fff" xmlns="http://www.w3.org/2000/svg">
<path d="M35.6415 5.59664L38.4292 0.796199C38.465 0.734612 38.4877 0.666905 38.4961 0.596941C38.5044 0.526977 38.4982 0.456128 38.4779 0.388439C38.4576 0.320749 38.4235 0.257544 38.3776 0.202434C38.3316 0.147323 38.2748 0.101385 38.2103 0.067244C38.08 -0.00170797 37.9263 -0.0184266 37.7831 0.0207662C37.6399 0.059959 37.5188 0.151853 37.4466 0.276232L34.628 5.12987C32.2232 4.12356 29.6259 3.60401 27 3.60401C24.3742 3.60401 21.7769 4.12356 19.3721 5.12987L16.5534 0.276232C16.4812 0.151853 16.3601 0.059959 16.2169 0.0207662C16.0737 -0.0184266 15.92 -0.00170796 15.7897 0.067244C15.6594 0.136196 15.5631 0.251733 15.5221 0.388439C15.481 0.525144 15.4985 0.67182 15.5708 0.796199L18.3585 5.59666C15.7049 6.84521 13.4627 8.76723 11.878 11.1519C10.2933 13.5365 9.42725 16.2917 9.37483 19.1152H44.6253C44.5729 16.2917 43.7068 13.5365 42.1221 11.1519C40.5374 8.7672 38.2952 6.84518 35.6415 5.59664ZM18.8652 12.9587C18.574 12.9587 18.2894 12.8763 18.0474 12.7219C17.8053 12.5675 17.6167 12.3481 17.5053 12.0914C17.3938 11.8346 17.3647 11.5521 17.4215 11.2796C17.4783 11.0071 17.6185 10.7567 17.8243 10.5602C18.0302 10.3637 18.2925 10.2299 18.578 10.1757C18.8635 10.1215 19.1595 10.1493 19.4284 10.2557C19.6974 10.362 19.9273 10.5421 20.089 10.7731C20.2508 11.0042 20.3371 11.2758 20.3371 11.5537C20.3367 11.9262 20.1814 12.2833 19.9055 12.5467C19.6295 12.8101 19.2554 12.9583 18.8652 12.9587ZM35.1348 12.9587C34.8437 12.9587 34.5591 12.8763 34.3171 12.7219C34.075 12.5675 33.8864 12.3481 33.775 12.0914C33.6635 11.8346 33.6344 11.5521 33.6912 11.2796C33.748 11.0071 33.8882 10.7567 34.094 10.5602C34.2999 10.3637 34.5622 10.2299 34.8477 10.1757C35.1332 10.1215 35.4292 10.1493 35.6981 10.2557C35.9671 10.362 36.197 10.5421 36.3587 10.7731C36.5205 11.0042 36.6068 11.2758 36.6068 11.5537C36.6063 11.9262 36.4511 12.2833 36.1752 12.5467C35.8992 12.8101 35.5251 12.9583 35.1348 12.9587ZM9.37457 44.8315C9.37457 45.9102 9.8235 46.9447 10.6226 47.7075C11.4217 48.4702 12.5056 48.8988 13.6357 48.8988H16.4634V57.2182C16.462 57.7144 16.5631 58.2059 16.7611 58.6647C16.959 59.1234 17.2498 59.5404 17.6169 59.8917C17.9839 60.243 18.42 60.5218 18.9001 60.7119C19.3802 60.9021 19.8949 61 20.4147 61C20.9344 61 21.4491 60.9021 21.9292 60.7119C22.4093 60.5218 22.8454 60.243 23.2124 59.8917C23.5795 59.5404 23.8703 59.1234 24.0682 58.6647C24.2662 58.2059 24.3673 57.7144 24.3659 57.2182V48.8988H29.6341V57.2182C29.6327 57.7144 29.7338 58.2059 29.9318 58.6647C30.1297 59.1234 30.4205 59.5404 30.7876 59.8917C31.1546 60.243 31.5907 60.5218 32.0708 60.7119C32.5509 60.9021 33.0656 61 33.5853 61C34.1051 61 34.6198 60.9021 35.0999 60.7119C35.58 60.5218 36.0161 60.243 36.3831 59.8917C36.7502 59.5404 37.041 59.1234 37.2389 58.6647C37.4369 58.2059 37.538 57.7144 37.5366 57.2182V48.8988H40.3644C41.4946 48.8988 42.5784 48.4702 43.3775 47.7075C44.1766 46.9447 44.6255 45.9102 44.6255 44.8315V20.4462H9.37457V44.8315ZM3.95128 19.7991C2.9037 19.8003 1.89937 20.198 1.15862 20.905C0.41787 21.6121 0.00119833 22.5708 1.45232e-05 23.5707V39.2852C-0.00139472 39.7813 0.099768 40.2729 0.297707 40.7316C0.495646 41.1904 0.786471 41.6074 1.15352 41.9587C1.52057 42.31 1.95663 42.5887 2.43672 42.7789C2.91681 42.9691 3.4315 43.067 3.95129 43.067C4.47109 43.067 4.98577 42.9691 5.46586 42.7789C5.94595 42.5887 6.38201 42.31 6.74906 41.9587C7.11611 41.6074 7.40694 41.1904 7.60488 40.7316C7.80282 40.2729 7.90398 39.7813 7.90257 39.2852V23.5707C7.90139 22.5708 7.48471 21.6121 6.74396 20.905C6.0032 20.198 4.99886 19.8002 3.95128 19.7991ZM50.0487 19.7991C49.0011 19.8002 47.9968 20.198 47.256 20.905C46.5153 21.6121 46.0986 22.5708 46.0974 23.5707V39.2852C46.096 39.7813 46.1972 40.2729 46.3951 40.7316C46.5931 41.1904 46.8839 41.6074 47.2509 41.9587C47.618 42.31 48.054 42.5887 48.5341 42.7789C49.0142 42.9691 49.5289 43.067 50.0487 43.067C50.5685 43.067 51.0832 42.9691 51.5633 42.7789C52.0434 42.5887 52.4794 42.31 52.8465 41.9587C53.2135 41.6074 53.5043 41.1904 53.7023 40.7316C53.9002 40.2729 54.0014 39.7813 54 39.2852V23.5707C53.9988 22.5708 53.5821 21.6121 52.8414 20.905C52.1006 20.198 51.0963 19.8003 50.0487 19.7991Z" fill="black"/>
</svg>
